<svg xmlns="http://www.w3.org/2000/svg" viewBox="0 0 800 895" width="800" height="895">
  <g fill="#225080">
    <path d="M 699 4 L 687 3 L 686 2 L 656 2 L 655 3 L 648 3 L 633 6 L 611 13 L 573 31 L 509 69 L 489 80 L 487 80 L 485 82 L 471 89 L 469 89 L 465 92 L 431 106 L 403 115 L 373 122 L 343 126 L 342 127 L 232 137 L 215 141 L 212 144 L 212 146 L 216 150 L 229 156 L 269 166 L 275 166 L 290 169 L 298 169 L 299 170 L 311 170 L 312 171 L 371 171 L 372 170 L 385 170 L 386 169 L 416 167 L 417 166 L 455 161 L 480 155 L 484 155 L 501 150 L 505 150 L 563 134 L 584 130 L 597 130 L 598 129 L 599 130 L 600 129 L 601 130 L 616 131 L 633 139 L 642 147 L 648 155 L 657 172 L 662 186 L 667 206 L 669 225 L 670 226 L 670 234 L 671 235 L 671 246 L 672 247 L 672 276 L 673 277 L 672 278 L 673 283 L 672 284 L 672 315 L 671 316 L 671 331 L 670 332 L 670 344 L 669 345 L 669 356 L 668 357 L 666 386 L 665 387 L 662 419 L 660 427 L 660 434 L 659 435 L 655 469 L 652 482 L 652 488 L 651 489 L 647 518 L 645 524 L 645 529 L 642 540 L 642 545 L 635 580 L 619 646 L 599 708 L 585 741 L 573 764 L 563 780 L 554 792 L 539 807 L 532 812 L 521 816 L 514 816 L 507 813 L 500 807 L 494 799 L 482 774 L 470 737 L 463 711 L 459 705 L 456 711 L 455 748 L 456 749 L 457 773 L 458 774 L 458 781 L 459 782 L 462 805 L 471 838 L 482 861 L 491 873 L 507 886 L 523 892 L 543 892 L 556 888 L 575 877 L 587 867 L 601 852 L 616 832 L 633 804 L 654 763 L 654 761 L 656 759 L 690 677 L 708 624 L 710 621 L 710 618 L 712 615 L 713 609 L 718 597 L 724 575 L 731 556 L 733 546 L 737 536 L 737 533 L 751 487 L 752 480 L 756 469 L 756 465 L 758 461 L 774 395 L 775 386 L 777 381 L 784 346 L 784 341 L 786 335 L 789 311 L 791 304 L 795 264 L 796 263 L 797 238 L 798 237 L 798 205 L 799 204 L 798 201 L 797 160 L 796 159 L 796 151 L 795 150 L 794 137 L 786 100 L 776 72 L 767 54 L 755 37 L 743 25 L 732 17 L 713 8 Z"/><path d="M 49 15 L 29 35 L 20 51 L 14 66 L 9 83 L 4 108 L 2 133 L 1 134 L 1 150 L 0 151 L 0 179 L 1 180 L 2 207 L 3 208 L 3 216 L 4 217 L 7 240 L 12 261 L 19 282 L 28 303 L 46 333 L 62 353 L 81 372 L 110 395 L 133 410 L 171 431 L 175 432 L 202 446 L 204 446 L 213 451 L 215 451 L 240 463 L 279 479 L 286 483 L 333 503 L 346 510 L 348 510 L 377 525 L 415 549 L 436 566 L 457 587 L 471 604 L 497 643 L 528 696 L 538 707 L 541 707 L 543 704 L 544 699 L 544 689 L 543 688 L 542 675 L 534 644 L 523 616 L 511 593 L 493 565 L 461 526 L 433 499 L 412 482 L 389 466 L 362 450 L 345 441 L 343 441 L 339 438 L 322 431 L 320 429 L 313 427 L 282 413 L 272 410 L 267 407 L 234 395 L 211 384 L 209 384 L 188 373 L 164 357 L 152 347 L 137 332 L 122 313 L 110 293 L 102 276 L 93 249 L 88 224 L 87 207 L 86 206 L 86 169 L 87 168 L 88 154 L 91 140 L 100 117 L 107 106 L 120 93 L 129 87 L 145 80 L 177 73 L 277 68 L 278 67 L 303 65 L 329 60 L 344 55 L 355 49 L 359 44 L 358 40 L 354 38 L 344 37 L 343 36 L 314 34 L 313 33 L 306 33 L 305 32 L 298 32 L 297 31 L 273 28 L 181 8 L 176 8 L 151 3 L 124 1 L 123 0 L 95 0 L 94 1 L 81 2 L 64 7 Z"/>
  </g>
  <g fill="#9d9e9e">
    <path d="M 45 455 L 43 457 L 43 459 L 46 466 L 52 474 L 74 496 L 99 515 L 113 523 L 124 531 L 172 560 L 174 560 L 210 580 L 212 580 L 227 588 L 251 598 L 269 604 L 290 609 L 299 614 L 305 621 L 310 634 L 310 644 L 308 648 L 301 652 L 289 650 L 223 623 L 216 619 L 205 615 L 203 613 L 174 601 L 152 590 L 143 587 L 102 568 L 83 561 L 79 561 L 77 563 L 78 568 L 80 571 L 92 583 L 107 594 L 158 625 L 213 653 L 285 680 L 299 688 L 307 696 L 312 705 L 313 719 L 309 726 L 307 727 L 297 727 L 263 716 L 258 713 L 248 710 L 208 694 L 203 691 L 198 690 L 178 681 L 168 678 L 158 673 L 140 667 L 127 661 L 120 660 L 130 671 L 160 693 L 185 708 L 227 729 L 243 735 L 245 737 L 273 748 L 302 757 L 311 763 L 313 767 L 313 776 L 311 780 L 304 786 L 292 787 L 277 784 L 261 779 L 258 777 L 244 773 L 241 771 L 198 756 L 169 744 L 162 743 L 162 745 L 172 754 L 212 781 L 234 794 L 293 822 L 301 827 L 308 834 L 309 844 L 307 849 L 302 853 L 286 853 L 285 852 L 275 851 L 249 844 L 229 836 L 220 834 L 220 837 L 227 847 L 247 866 L 260 875 L 278 884 L 303 892 L 314 893 L 315 894 L 331 894 L 336 893 L 346 888 L 352 882 L 356 874 L 360 855 L 360 844 L 361 843 L 360 772 L 359 771 L 359 748 L 358 747 L 358 725 L 357 724 L 355 671 L 354 670 L 354 657 L 353 656 L 351 628 L 346 604 L 340 588 L 336 582 L 327 573 L 313 565 L 293 558 L 286 557 L 283 555 L 260 549 L 254 546 L 251 546 L 212 532 L 184 520 L 171 513 L 169 513 L 167 511 L 165 511 L 153 504 L 151 504 L 149 502 L 83 468 L 59 458 Z"/>
  </g>
</svg>